<?xml version="1.0" standalone="no"?>
<!DOCTYPE svg PUBLIC "-//W3C//DTD SVG 20010904//EN"
 "http://www.w3.org/TR/2001/REC-SVG-20010904/DTD/svg10.dtd">
<svg version="1.0" xmlns="http://www.w3.org/2000/svg"
 width="304.000000pt" height="304.000000pt" viewBox="0 0 304.000000 304.000000"
 preserveAspectRatio="xMidYMid meet">
<metadata>
Created by potrace 1.14, written by Peter Selinger 2001-2017
</metadata>
<g transform="translate(0.000000,304.000000) scale(0.100000,-0.100000)"
fill="#000000" stroke="none">
<path d="M802 2578 c-8 -8 -12 -53 -12 -126 0 -167 46 -370 122 -546 27 -62
29 -73 19 -105 -10 -31 -42 -246 -44 -291 -2 -50 6 -81 28 -111 13 -19 40 -65
59 -102 20 -38 46 -83 58 -100 21 -30 23 -46 30 -227 13 -372 70 -534 213
-605 l60 -30 185 0 c173 0 188 2 237 24 57 25 111 78 141 138 52 101 82 283
82 499 0 132 2 144 25 185 14 24 40 74 59 111 18 37 45 80 58 97 30 35 43 104
30 158 -6 21 -13 74 -16 119 -3 44 -12 100 -19 125 -13 41 -12 48 13 104 84
188 140 472 125 620 -9 80 -23 87 -82 37 -101 -82 -197 -216 -260 -364 -39
-91 -48 -101 -79 -93 -20 4 -20 3 4 -46 28 -57 37 -168 15 -190 -17 -17 -35 0
-105 104 -33 48 -65 87 -71 84 -7 -2 -21 -31 -31 -65 -26 -82 -45 -83 -86 -1
-17 33 -36 59 -43 57 -7 -3 -20 -30 -31 -61 -25 -79 -44 -76 -91 14 -20 38
-41 69 -46 67 -5 -2 -40 -48 -78 -103 -84 -125 -105 -131 -109 -36 -3 66 7
105 40 153 16 23 16 27 4 22 -25 -10 -42 11 -77 98 -44 109 -110 208 -202 300
-87 88 -109 102 -125 86z m767 -863 c78 -109 81 -206 8 -315 -27 -41 -28 -48
-17 -75 54 -134 64 -179 64 -310 1 -110 -3 -142 -22 -205 -30 -94 -69 -172
-85 -168 -20 7 -64 108 -86 199 -36 151 -25 295 35 445 l25 64 -37 61 c-65
105 -58 210 22 314 14 19 34 35 43 35 10 0 32 -20 50 -45z m-611 -218 c2 -10
-3 -17 -12 -17 -18 0 -29 16 -21 31 9 14 29 6 33 -14z m1090 0 c2 -12 -3 -17
-17 -17 -12 0 -21 6 -21 13 0 31 32 34 38 4z"/>
</g>
</svg>
